<svg xmlns="http://www.w3.org/2000/svg" viewBox="0 0 100 100">
  <path fill="#44acbc"
    d="m83 59.7.4-.1a17.9 17.9 0 0 0-.5-35.7 20 20 0 0 0-37.8-12.2 16 16 0 0 0-23.3 8.2A20 20 0 0 0 0 39.7c.1 11 9 20 20 20h28.9V69H13c-3.8 0-7 2.8-7.5 6.5a6.7 6.7 0 1 0 2.5 0 5 5 0 0 1 5-4h18.7v15.2a6.7 6.7 0 1 0 2.5 0V71.5h31.4v15.2a6.7 6.7 0 1 0 2.5 0V71.5h18.7a5 5 0 0 1 5 4 6.7 6.7 0 1 0 2.5 0A7.6 7.6 0 0 0 87 69H51.2v-9.3H83zM11 82a4.2 4.2 0 1 1-8.5 0 4.2 4.2 0 0 1 8.5 0zm26.3 11.2a4.2 4.2 0 1 1-8.5 0 4.2 4.2 0 0 1 8.5 0zm33.9 0a4.2 4.2 0 1 1-8.5 0 4.2 4.2 0 0 1 8.5 0zM97.5 82a4.2 4.2 0 1 1-8.5 0 4.2 4.2 0 0 1 8.5 0zm-95-42.4a17.5 17.5 0 0 1 20-17.2c.7 0 1.3-.3 1.4-.9a13.4 13.4 0 0 1 21-7c.4.2.8.3 1.2.2.4-.1.7-.4.8-.8a17.5 17.5 0 0 1 34 6 16 16 0 0 1-.8 4.8c-.1.4 0 .8.2 1.2s.7.5 1 .4h.8a15.4 15.4 0 0 1 .6 30.8H20c-9.7 0-17.5-7.9-17.5-17.5z" />
</svg>