<svg xmlns="http://www.w3.org/2000/svg" viewBox="0 0 370 100">
  <path fill="#44acbc"
    d="m83 59.7.4-.1a17.9 17.9 0 0 0-.5-35.7 20 20 0 0 0-37.8-12.2 16 16 0 0 0-23.3 8.2A20 20 0 0 0 0 39.7c.1 11 9 20 20 20h28.9V69H13c-3.8 0-7 2.8-7.5 6.5a6.7 6.7 0 1 0 2.5 0 5 5 0 0 1 5-4h18.7v15.2a6.7 6.7 0 1 0 2.5 0V71.5h31.4v15.2a6.7 6.7 0 1 0 2.5 0V71.5h18.7a5 5 0 0 1 5 4 6.7 6.7 0 1 0 2.5 0A7.6 7.6 0 0 0 87 69H51.2v-9.3H83zM11 82a4.2 4.2 0 1 1-8.5 0 4.2 4.2 0 0 1 8.5 0zm26.3 11.2a4.2 4.2 0 1 1-8.5 0 4.2 4.2 0 0 1 8.5 0zm33.9 0a4.2 4.2 0 1 1-8.5 0 4.2 4.2 0 0 1 8.5 0zM97.5 82a4.2 4.2 0 1 1-8.5 0 4.2 4.2 0 0 1 8.5 0zm-95-42.4a17.5 17.5 0 0 1 20-17.2c.7 0 1.3-.3 1.4-.9a13.4 13.4 0 0 1 21-7c.4.2.8.3 1.2.2.4-.1.7-.4.8-.8a17.5 17.5 0 0 1 34 6 16 16 0 0 1-.8 4.8c-.1.4 0 .8.2 1.2s.7.5 1 .4h.8a15.4 15.4 0 0 1 .6 30.8H20c-9.7 0-17.5-7.9-17.5-17.5z" />
  <path fill="#44acbc"
    d="M131.3 66.2q-5.2-2.9-8.3-7.8t-3-10.8 3-10.8 8.2-7.8 11.2-3q6.6 0 11.9 3.2t8.4 8.9l-10.1 4q-1.8-3.1-4.4-4.6t-5.8-1.6q-4.8 0-8 3.3t-3.2 8.4 3.2 8.3 8.1 3.3q6.8 0 10.5-6l9.5 3.7q-6 12.2-20 12.2-6 0-11.2-2.9zm47.9 0q-5.1-3-8.1-7.9t-3-10.8q0-5.8 3-10.7t8.1-7.9 11.2-2.9 11.3 3 8.2 7.8 3 10.7q0 5.8-3 10.8t-8.2 7.8-11.3 3-11.2-3zm5.5-28.8q-2.6 1.5-4.1 4.2t-1.5 5.9q0 3.4 1.4 6t4.1 4.2 5.8 1.6q3.2 0 5.8-1.6t4-4.2 1.6-6q0-3.2-1.5-6t-4.1-4.1-5.8-1.6q-3 0-5.7 1.6zm72-6.8q3.8 4.6 3.8 13v24.5h-11.4V43.7q0-8.4-8-8.4-3 0-5.6 2.5t-2.3 8.4v21.9H222V26.8h11.2v3.6q2-2 5.1-3.2t6-1.2q8.5 0 12.4 4.6zm28.7 22.7q0 2.7.9 4.4t4.2 1.8q1.5 0 2.8-.2v9.5q-2.7.3-5 .3-4.8 0-7.8-.8t-4.6-3-1.6-6.5V36h-5v-9.8h5V15h11v11h8.3v9.8h-8.2v17.4zm30 14.8h-11.2V37h-4.7v-9.7h4.7q.3-8 4.5-12.2t11.9-4.2q2.3 0 5 .7l-.6 9q-1.5-.4-3.1-.4-4 0-5.3 2t-1.2 5.1h7.5V37h-7.5v31zm16-16.8V27h11.4v24.4q0 4.4 2.2 6.4t5.9 1.9q3.1 0 5.6-2.5t2.2-8.3v-22H370v41.2h-11.3v-3.6q-2 2.1-4.9 3.3t-6.1 1.2q-16.2 0-16.2-17.7zM151.6 85.8q0 .5-.3 1t-.6.9-.9.5-1 .2H145v-9.2h3.3q.6 0 1.1.2t1 .5.5.8.2 1.1l-.2 1q-.2.5-.6.8l.5.4.4.5.3.6v.7zm-2.2-4q0-.3-.2-.5t-.3-.4-.5-.3-.6 0h-1V83h1.6l.5-.3.3-.4.2-.6zm.3 3.9V85q0-.3-.4-.4t-.4-.2-.6-.1h-1.5v2.5h1.9q.3 0 .5-.3t.4-.4.1-.5zm19.2-1.9q0 1-.4 1.9t-1 1.5-1.6 1-2 .4-1.8-.4-1.6-1-1-1.5-.4-1.9.3-1.9 1.1-1.5 1.6-1 1.9-.4 1.9.4 1.5 1 1 1.5.5 1.9zm-1.8 0q0-.6-.3-1.2t-.7-1-1-.6-1.1-.3q-.7 0-1.3.3t-1 .6-.6 1-.2 1.2l.2 1.2q.2.6.7 1t1 .6 1.2.3q.6 0 1.2-.3t1-.6.6-1 .3-1.2zm19.1 0q0 1-.3 1.9t-1.1 1.5-1.6 1-1.8.4-2-.4-1.5-1-1-1.5-.5-1.9.4-1.9 1-1.5 1.7-1 1.9-.4 1.8.4 1.6 1 1 1.5.4 1.9zm-1.8 0-.2-1.2q-.2-.6-.7-1t-1-.6-1.1-.3q-.7 0-1.3.3t-1 .6-.6 1-.3 1.2q0 .6.3 1.2t.7 1 1 .6 1.2.3q.6 0 1.2-.3t1-.6.6-1 .2-1.2zm16 2.2q0 .5-.3 1t-.6.8-1 .6-1.2.2h-1q-.5 0-1-.3t-.8-.4-.8-.6l1.3-1.2 1 .6 1.2.2h.5q.2 0 .4-.3t.3-.3 0-.4v-.3l-.3-.4q-.3-.3-.6-.3t-1-.4l-.9-.4q-.5-.2-.8-.6t-.6-.8-.2-1q0-.6.2-1.1t.7-.9 1-.5 1.1-.2q1 0 1.8.3t1.3.8l-1.2 1.2-.8-.5q-.4-.2-1-.2l-.5.1-.4.2q-.2.1-.3.4t0 .3v.4q0 .2.4.4t.5.3 1 .4l1.1.5.8.6.5.8q.2.5.1 1zm14.1-5.2H212v7.6h-2v-7.6h-2.5v-1.6h7v1.6zm26.3-1.6-3.8 5.4v3.8h-1.8v-3.8l-3.5-5.4h2l2.4 3.9 2.5-3.9h2.2zm15.7 4.6q0 1-.4 1.9t-1 1.5-1.6 1-1.9.4-1.9-.4-1.5-1-1-1.5-.5-1.9.4-1.9 1-1.5 1.6-1 2-.4 1.8.4 1.6 1 1 1.5.4 1.9zm-1.8 0-.2-1.2q-.2-.6-.7-1t-1-.6-1.2-.3q-.6 0-1.2.3t-1 .6-.6 1-.3 1.2q0 .6.3 1.2t.6 1 1 .6 1.2.3q.7 0 1.2-.3t1-.6.7-1 .2-1.2zm17.9-4.6v5q0 1-.3 1.7t-.8 1.4-1.3 1-1.7.3q-1 0-1.7-.4t-1.3-.9-.8-1.4-.3-1.7v-5h1.8v5l.1 1q.1.5.4.9t.8.5 1 .2l1-.2q.5-.2.7-.5t.4-.8.2-1v-5.1h1.8zm15 9.2h-2l-.7-2q0-.4-.2-.7t-.4-.5-.5-.3-.7-.2h-.7v3.7h-1.8v-9.2h3.7q.6 0 1 .2t1 .5.5.9.2 1l-.1.8q-.1.4-.4.7t-.5.6-.7.4q.4.1.7.4t.4.8l.2.4.1.4.2.4q.2.2.2.6l.2.6.3.5zm-2.4-6.4v-.6q0-.2-.4-.5t-.5-.3-.6-.1h-1.3v2.9h1.3l.6-.1.5-.3.3-.5.1-.5zm28.7 4.8q-.7.8-1.7 1.3t-2.2.5q-1 0-2-.4t-1.5-1-1-1.5-.4-1.9.4-1.9 1-1.5 1.6-1 2-.4q1.1 0 2 .5t1.7 1.3l-1.2 1.3q-.4-.6-1.1-1t-1.5-.4q-.6 0-1.2.3t-1 .6-.7 1-.2 1.2l.2 1.2q.2.6.7 1t1 .6 1.2.3q.9 0 1.5-.4t1.1-1zm16.6 1.6h-1.7v-6.1l-3 4.9-2.7-5v6.2h-1.8v-9.2h2l2.6 4.6 2.7-4.6h2v9.2zM345 86l-.2 1q-.2.5-.7.8t-1 .6-1.1.2h-1.1q-.5 0-1-.3t-.7-.4-.8-.6l1.2-1.2 1.1.6q.5.2 1.2.2h.5q.3 0 .4-.3t.2-.3.1-.4v-.3l-.3-.4q-.3-.3-.6-.3t-1-.4l-1-.4-.8-.6q-.4-.4-.5-.8t-.2-1q0-.6.2-1.1t.6-.9 1-.5 1.2-.2q1 0 1.8.3t1.3.8l-1.3 1.2-.8-.5-1-.2-.5.1-.3.2-.3.4q-.3.3-.1.3v.4q0 .2.4.4t.6.3.9.4l1.2.5.8.6.5.8q.2.5.1 1z" />
</svg>