<svg xmlns="http://www.w3.org/2000/svg" viewBox="0 0 429 108"><path fill="#44acbc" d="M77.5 71.4h17.9a20.6 20.6 0 0 0 6.5-40A28.8 28.8 0 0 0 64.7 8.2a31.8 31.8 0 0 0-53 24.2 20.5 20.5 0 0 0 8.9 39h17.9l9.4 9.9v24a1.8 1.8 0 0 0 2.7 1.6l16.5-9c.6-.3 1-1 1-1.6v-15l9.4-9.9m-12.6 7.9c-.3.3-.5.8-.5 1.2v14.7l-12.9 7V80.5c0-.4-.1-.9-.5-1.2L30.6 58h54.8L64.9 79.3Zm16-11.5 10-10.4c.4-.3.6-3.4.6-3.8h-67c0 .4.2 3.5.5 3.8l10 10.4H20.6a17 17 0 0 1-6.4-32.6c.7-.3 1.2-1 1.1-1.8v-1.6A28.2 28.2 0 0 1 63 11.5c.5.5 1.2.7 1.9.4a25.2 25.2 0 0 1 33.6 21c0 .8.6 1.4 1.3 1.6a17 17 0 0 1-4.4 33.3H81M43.7 31.7H33.5c-1 0-1.8.8-1.8 1.8v10.1c0 1 .8 1.8 1.8 1.8h10.2c1 0 1.8-.8 1.8-1.8V33.5c0-1-.8-1.8-1.8-1.8Zm-1.8 10.1h-6.6v-6.5H42v6.5Zm21.3-18.4h-7.8c-1 0-1.8.8-1.8 1.8V33c0 1 .8 1.9 1.8 1.9h7.8c1 0 1.8-.9 1.8-1.9v-7.8c0-1-.8-1.8-1.8-1.8Zm-1.8 7.8h-4.2V27h4.2v4.2ZM82 31h-7.8c-1 0-1.8.8-1.8 1.8v7.8c0 1 .8 1.8 1.8 1.8H82c1 0 1.9-.8 1.9-1.8v-7.8c0-1-.9-1.8-1.9-1.8Zm-1.8 7.8H76v-4.2h4.2v4.2Zm72 33.3a25 25 0 0 1-13.1-21.6 23 23 0 0 1 3.6-12.5 26.1 26.1 0 0 1 22.5-12.4 26.2 26.2 0 0 1 23.5 14l-11.8 4.6a14.5 14.5 0 0 0-5.1-5.4c-2-1.2-4.3-1.8-6.6-1.8-3.8 0-7 1.3-9.4 3.8a13.3 13.3 0 0 0-3.7 9.7c0 3.9 1.3 7.1 3.7 9.7 2.5 2.5 5.7 3.8 9.4 3.8 5.3 0 9.3-2.3 12.1-7l11.1 4.4a23.8 23.8 0 0 1-23.2 14c-4.7 0-9-1-13-3.3Zm55.6 0a26 26 0 0 1-9.5-9.1 24.2 24.2 0 0 1 0-25 26.1 26.1 0 0 1 22.5-12.4A26.4 26.4 0 0 1 243.4 38a23.5 23.5 0 0 1 0 25 26.4 26.4 0 0 1-22.6 12.4c-4.7 0-9-1.1-13-3.3Zm6.4-33.4c-2 1.2-3.7 2.8-4.8 4.9a14.3 14.3 0 0 0 0 13.8 12.7 12.7 0 0 0 11.4 6.7 12.8 12.8 0 0 0 11.4-6.7 14 14 0 0 0 1.7-7 13.7 13.7 0 0 0-6.5-11.7 12.9 12.9 0 0 0-13.3 0Zm83.4-7.9a23 23 0 0 1 4.5 15.2v28.3h-13.3V46c0-6.5-3.1-9.7-9.3-9.7a9 9 0 0 0-6.4 2.8c-2 2-2.8 5.2-2.7 9.8v25.4h-13V26.4h13v4.3a19 19 0 0 1 12.8-5.1c6.6 0 11.4 1.7 14.4 5.2Zm33.3 26.4c0 2 .3 3.7 1 5.1.7 1.4 2.4 2 5 2l3.2-.1v11a52.9 52.9 0 0 1-14.8-.6 10 10 0 0 1-5.4-3.5 13.4 13.4 0 0 1-1.9-7.5V37h-5.8V25.6h5.8V12.8h13v12.8h9.6V37H331v20.2Zm34.8 17h-13V38.4h-5.4V27.2h5.4c.2-6.2 2-11 5.3-14.2 3.3-3.3 7.9-4.9 13.7-4.9 1.8 0 3.7.3 5.8.8l-.7 10.5c-1.1-.3-2.3-.5-3.6-.5-3.1 0-5.2.8-6 2.4-1 1.5-1.5 3.5-1.5 5.9h8.6v11.1h-8.6v36ZM384.3 55V26.6h13.2v28.3c0 3.4.8 5.8 2.6 7.3a10 10 0 0 0 6.7 2.2 9 9 0 0 0 6.5-2.8c2-1.9 2.8-5.1 2.6-9.7V26.6H429v47.7h-13v-4.1a16.3 16.3 0 0 1-5.8 3.8c-2.2.9-4.6 1.3-7 1.3-12.6 0-18.9-6.8-18.9-20.4ZM175.7 94.8c0 .5 0 .9-.2 1.2a3.1 3.1 0 0 1-1.8 1.7l-1.3.2h-4.3V87.2h3.9c.4 0 .9 0 1.3.2.4.1.7.3 1 .6.3.2.5.6.7 1 .2.3.2.8.2 1.2 0 .4 0 .8-.2 1.2a3 3 0 0 1-.7 1c.2 0 .4.2.6.4a2.9 2.9 0 0 1 .8 2Zm-2.5-4.5c0-.3 0-.5-.2-.7 0-.2-.2-.3-.4-.5l-.5-.3h-1.9v2.9h1.9c-.2-.1 0-.2.5-.3.6-.1.7-.3.4-.5-.2-.2-.2-.4.2-.6Zm.4 4.4-.1-.6-.4-.5-.5-.3-.6-.1a21.2 21.2 0 0 0-1.8 0v3h1.5l.7-.1.6-.3.4-.4.2-.7Zm22.2-2.2a5.3 5.3 0 0 1-1.7 4 5.8 5.8 0 0 1-4 1.6 5.6 5.6 0 0 1-4-1.6 5.5 5.5 0 0 1-1.7-4 5.3 5.3 0 0 1 1.7-4 5.7 5.7 0 0 1 4-1.5 5.7 5.7 0 0 1 5.7 5.5Zm-2.1 0a3.4 3.4 0 0 0-1-2.5 3.7 3.7 0 0 0-2.6-1c-.5 0-1 0-1.4.2a3.7 3.7 0 0 0-2 2 3.4 3.4 0 0 0 0 2.7 3.6 3.6 0 0 0 4.8 2 3.7 3.7 0 0 0 2-2l.2-1.4Zm22.2 0a5.3 5.3 0 0 1-1.6 4 5.8 5.8 0 0 1-4 1.6 5.6 5.6 0 0 1-4-1.6 5.6 5.6 0 0 1-1.7-4 5.3 5.3 0 0 1 1.7-4 5.7 5.7 0 0 1 4-1.5 5.7 5.7 0 0 1 5.6 5.5Zm-2 0a3.4 3.4 0 0 0-1-2.5l-1.2-.8-1.4-.3a3.7 3.7 0 0 0-3.3 2.2 3.5 3.5 0 0 0 0 2.8 3.6 3.6 0 0 0 4.7 2 3.7 3.7 0 0 0 1.9-2c.2-.4.3-.9.3-1.4Zm18.4 2.6c0 .4 0 .7-.3 1.1a3 3 0 0 1-.7 1c-.3.2-.7.5-1.1.6a4 4 0 0 1-1.4.3l-1.3-.1a5.4 5.4 0 0 1-2.9-1.4l1.5-1.5c.4.4.8.7 1.2.8l1.4.2a1.7 1.7 0 0 0 1-.3l.3-.3.1-.5v-.4a1 1 0 0 0-.4-.4l-.7-.4-1-.4-1.2-.5a4 4 0 0 1-1-.7 2.8 2.8 0 0 1-.9-2.1 2.9 2.9 0 0 1 1-2.3c.4-.2.7-.5 1.2-.6a5.9 5.9 0 0 1 3.4 0l1.5 1-1.4 1.5a2 2 0 0 0-1-.6 3 3 0 0 0-1-.2 1.7 1.7 0 0 0-1.1.3l-.3.4-.1.4v.5l.4.4.7.4c.3 0 .7.2 1 .4l1.4.6 1 .7.5 1 .2 1Zm16.4-6h-3v8.8h-2V89h-3v-1.8h8V89Zm30.5-2-4.4 6.4v4.4h-2v-4.4l-4.2-6.3h2.4l2.8 4.5 2.9-4.5h2.5Zm18.2 5.4a5.3 5.3 0 0 1-1.6 4 5.8 5.8 0 0 1-4 1.6 5.6 5.6 0 0 1-4-1.6 5.5 5.5 0 0 1-1.7-4 5.3 5.3 0 0 1 1.7-4 5.7 5.7 0 0 1 6.2-1.1 5.7 5.7 0 0 1 3 3c.3.6.4 1.3.4 2.1Zm-2 0a3.5 3.5 0 0 0-1.1-2.5 3.7 3.7 0 0 0-2.5-1c-.5 0-1 0-1.4.2a3.7 3.7 0 0 0-2 2 3.5 3.5 0 0 0 0 2.7 3.6 3.6 0 0 0 4.8 2 3.7 3.7 0 0 0 1.9-2c.2-.4.3-.9.3-1.4Zm20.6-5.3V93a6 6 0 0 1-.3 2 4 4 0 0 1-1 1.6 3 3 0 0 1-1.4 1c-.6.3-1.3.5-2 .5s-1.4-.2-2-.4A4.4 4.4 0 0 1 307 95c-.3-.6-.4-1.3-.4-2v-5.8h2V93c0 .4.1.8.3 1.1 0 .4.3.7.5 1l.8.6 1.2.2c.4 0 .8 0 1.1-.2.4-.1.6-.3.9-.6l.5-1 .1-1.1v-6h2.1Zm17.4 10.7h-2.3l-.7-2.5-.3-.7-.5-.6c-.1-.1-.3-.3-.6-.3l-.8-.2h-.8V98h-2V87.2h4.2c.5 0 .9 0 1.3.2a3 3 0 0 1 1.7 1.6 3 3 0 0 1-1 3.6l-.8.5.8.5c.2.2.4.5.5.9a9.4 9.4 0 0 1 .4.9 174.1 174.1 0 0 1 1 2.5Zm-2.7-7.5a1.6 1.6 0 0 0-.5-1.2l-.6-.4a2 2 0 0 0-.7-.1h-1.5V92h2.2l.6-.4a1.6 1.6 0 0 0 .5-1.2Zm33.2 5.5a6 6 0 0 1-2 1.6 5.7 5.7 0 0 1-7.8-2.8c-.2-.7-.4-1.4-.4-2.2a5.3 5.3 0 0 1 1.7-4 5.7 5.7 0 0 1 4-1.5c1 0 1.8.2 2.6.5.7.4 1.4 1 1.9 1.5l-1.5 1.5a3.5 3.5 0 0 0-3-1.6 3.8 3.8 0 0 0-3.4 2.2 3.4 3.4 0 0 0 0 2.8 3.7 3.7 0 0 0 5.2 1.7 4 4 0 0 0 1.3-1.1l1.4 1.4Zm19.4 2h-2v-7.2l-3.4 5.7-3.3-5.7v7.2h-2V87.2h2.3l3 5.3 3.1-5.3h2.3v10.7ZM400 95c0 .4 0 .7-.2 1.1a3 3 0 0 1-.8 1l-1 .6a4 4 0 0 1-1.5.3l-1.3-.1a5.4 5.4 0 0 1-2.9-1.4l1.5-1.5c.4.4.9.7 1.3.8l1.3.2a1.7 1.7 0 0 0 1-.3l.3-.3.1-.5v-.4l-.4-.4-.7-.4-1-.4-1.2-.5a4 4 0 0 1-1-.7 2.8 2.8 0 0 1-.9-2.1 2.9 2.9 0 0 1 1-2.3l1.2-.6a5.9 5.9 0 0 1 3.4 0c.6.3 1.1.6 1.5 1l-1.4 1.5a2 2 0 0 0-1-.6 3 3 0 0 0-1-.2 1.7 1.7 0 0 0-1 .3l-.4.4-.1.4.1.5.4.4.6.4c.3 0 .7.2 1 .4l1.5.6 1 .7.4 1c.2.3.2.6.2 1Z"/></svg>