<svg xmlns="http://www.w3.org/2000/svg" viewBox="0 0 100 100"><path fill="#44acbc" d="M66.83 65.41h15.44c9.77 0 17.73-7.95 17.73-17.73 0-7.63-4.92-14.39-12.1-16.8A24.85 24.85 0 0 0 63.3 9.71c-2.56 0-5.07.38-7.49 1.14A27.26 27.26 0 0 0 37.46 3.8a27.44 27.44 0 0 0-27.4 27.9A17.69 17.69 0 0 0 0 47.68c0 9.78 7.96 17.73 17.73 17.73h15.44l8.15 8.5v20.72A1.56 1.56 0 0 0 43.64 96l14.22-7.78c.5-.27.82-.8.82-1.37V73.91l8.15-8.5M56 72.2c-.28.3-.44.68-.44 1.08v12.64L44.45 92V73.3c0-.41-.16-.8-.44-1.1L26.35 53.8h47.3L55.99 72.2Zm13.84-9.91 8.61-8.97c.28-.29.44-2.92.44-3.32H21.12c0 .4.16 3.03.44 3.32l8.6 8.97H17.74a14.58 14.58 0 0 1-5.5-28.14c.63-.25 1.02-.87.98-1.53A24.3 24.3 0 0 1 37.45 6.94c6.33 0 12.33 2.42 16.88 6.82.43.42 1.05.55 1.61.35a21.72 21.72 0 0 1 28.99 18.13c.07.64.52 1.17 1.14 1.34a14.65 14.65 0 0 1 10.8 14.1c0 8.06-6.55 14.61-14.6 14.61H69.83M37.67 31.11H28.9c-.86 0-1.56.7-1.56 1.56v8.77c0 .87.7 1.57 1.56 1.57h8.77c.87 0 1.57-.7 1.57-1.57v-8.77c0-.86-.7-1.56-1.57-1.56Zm-1.56 8.77h-5.65v-5.65h5.65v5.65ZM54.53 24h-6.75c-.86 0-1.56.7-1.56 1.56v6.75c0 .86.7 1.56 1.56 1.56h6.75c.86 0 1.56-.7 1.56-1.56v-6.75c0-.86-.7-1.56-1.56-1.56Zm-1.56 6.75h-3.62v-3.63h3.62v3.63Zm17.8-.29h-6.75c-.87 0-1.57.7-1.57 1.56v6.75c0 .87.7 1.56 1.57 1.56h6.74c.87 0 1.57-.7 1.57-1.56v-6.75c0-.86-.7-1.56-1.57-1.56Zm-1.57 6.75h-3.62V33.6h3.62v3.62Z"/></svg>